<?xml version="1.0" encoding="UTF-8"?>
<svg version="1.1" xmlns="http://www.w3.org/2000/svg" width="603" height="603">
<path d="M0 0 C1.82837885 -0.00258793 3.65675714 -0.00560227 5.48513466 -0.0090034 C10.48382454 -0.01702574 15.48250002 -0.01886029 20.48119557 -0.01960087 C25.88210564 -0.02145966 31.28300839 -0.02901086 36.68391418 -0.03573608 C48.4791538 -0.04928365 60.27439001 -0.05533788 72.06963611 -0.05974674 C79.43822028 -0.06251392 86.80680314 -0.066752 94.17538643 -0.07125092 C114.58976757 -0.08343643 135.00414767 -0.09373877 155.41853237 -0.09712601 C157.37597241 -0.09745536 157.37597241 -0.09745536 159.3729567 -0.09779136 C160.68096048 -0.09800964 161.98896427 -0.09822791 163.33660454 -0.09845281 C165.98694066 -0.09889627 168.63727679 -0.09934283 171.28761292 -0.09979248 C173.25958235 -0.10012463 173.25958235 -0.10012463 175.27138955 -0.10046348 C196.58523391 -0.10441367 217.89903426 -0.12187765 239.21286678 -0.145152 C261.11182112 -0.16887186 283.01075833 -0.18132806 304.90972573 -0.18249393 C317.19881272 -0.18341006 329.48785515 -0.18914741 341.77692986 -0.20731354 C352.23739937 -0.2227227 362.69781054 -0.22782995 373.15828925 -0.21957543 C378.49255403 -0.21567254 383.82670133 -0.21658124 389.16095161 -0.23063278 C394.04942218 -0.24339219 398.93768721 -0.24215626 403.82615758 -0.23004207 C405.58914297 -0.22808868 407.35214302 -0.23114684 409.11510783 -0.23988643 C433.86645788 -0.3547636 453.14910334 6.58372956 471.07643127 23.89044189 C483.93419565 36.78966287 492.21783058 54.34640335 492.33100891 72.60157776 C492.34844792 73.62342663 492.36588693 74.6452755 492.38385439 75.69808948 C492.43796131 79.15581082 492.47006614 82.61335049 492.50123596 86.0713501 C492.5339213 88.61948304 492.56722154 91.16760815 492.6010704 93.7157259 C493.06326204 130.76898784 493.0106053 167.8300093 493.02661991 204.88545012 C493.02942634 211.31255848 493.03366908 217.73966544 493.03812408 224.16677284 C493.05024702 242.06097791 493.06057635 259.95518191 493.06399918 277.84939098 C493.06421874 278.98085177 493.06443831 280.11231256 493.06466453 281.27806004 C493.06488281 282.4115929 493.06510108 283.54512576 493.06532598 284.71300811 C493.06576939 287.00856221 493.06621595 289.30411631 493.06666565 291.59967041 C493.06688708 292.73824827 493.06710851 293.87682613 493.06733665 295.04990635 C493.07131102 313.62413368 493.08887566 332.19832245 493.11202517 350.77253481 C493.1357522 369.96770558 493.14820074 389.16285687 493.14936709 408.35804254 C493.15028027 419.08714298 493.15594717 429.81619229 493.17418671 440.54527855 C493.18960225 449.6416761 493.1946975 458.73800648 493.1864486 467.83441462 C493.18255452 472.46446096 493.1834128 477.09437197 493.19750595 481.72440147 C493.21031075 485.96967148 493.20899055 490.21470529 493.19691524 494.45997528 C493.19497029 495.98609155 493.19798031 497.51222497 493.2067596 499.03831723 C493.34318689 524.37633503 485.4576547 545.0469272 467.71315002 563.31622314 C447.59163811 582.26060822 423.7256908 585.48846616 397.27900696 585.36317444 C395.45883855 585.36206151 393.63866942 585.36182969 391.81850076 585.3623926 C386.86108115 585.36136485 381.90376598 585.34780646 376.94637442 585.33200729 C371.58305819 585.31712382 366.21973256 585.31397527 360.85639954 585.30923462 C350.36821436 585.29802705 339.88008118 585.2757521 329.39192459 585.24924395 C320.8664791 585.22782491 312.3410334 585.21004772 303.81557465 585.19482994 C302.60004821 585.19264977 301.38452178 585.1904696 300.13216121 585.18822336 C297.66253454 585.18379757 295.19290786 585.17937471 292.72328117 585.17495473 C269.59541582 585.13302759 246.46759566 585.07792349 223.33976892 585.01876452 C202.19043099 584.96507389 181.04110151 584.92783916 159.89171717 584.89836589 C138.15420397 584.86792661 116.41673743 584.82647701 94.67926812 584.773081 C82.48363036 584.74331521 70.28802093 584.71788112 58.09235382 584.70395851 C47.71536542 584.69198836 37.33846316 584.66959641 26.96152851 584.63380263 C21.66991113 584.61583333 16.37839664 584.60260587 11.08674622 584.60235023 C6.23854637 584.60198894 1.39058709 584.58779195 -3.45754644 584.56278094 C-5.20692167 584.55614472 -6.95632466 584.55447445 -8.70570806 584.55840383 C-21.87336789 584.5838073 -33.24762782 583.01340524 -45.17356873 577.14044189 C-45.81552185 576.85555908 -46.45747498 576.57067627 -47.11888123 576.27716064 C-63.6475652 568.68199615 -75.23945825 555.23560188 -83.42356873 539.32794189 C-83.74059753 538.72538574 -84.05762634 538.12282959 -84.38426208 537.50201416 C-90.73078809 524.66400343 -91.75672712 512.46508676 -91.67477417 498.45388794 C-91.67867375 496.594193 -91.68431944 494.73450105 -91.69154507 492.87481606 C-91.70622292 487.7987985 -91.69616431 482.7230936 -91.68180835 477.64708638 C-91.6706588 472.15964733 -91.68265424 466.67225071 -91.69165039 461.18481445 C-91.70555721 450.44902183 -91.69804581 439.71334712 -91.68297481 428.97756015 C-91.66608479 416.46828102 -91.6693287 403.95903101 -91.67306889 391.449744 C-91.67911999 368.4534931 -91.66336336 345.45729395 -91.63788125 322.46106131 C-91.61476246 301.48649269 -91.60938103 280.51199303 -91.61961365 259.53741455 C-91.62221585 254.16454 -91.62480092 248.79166545 -91.62721157 243.41879082 C-91.62750902 242.75723954 -91.62780647 242.09568827 -91.62811293 241.41408999 C-91.63573395 223.86437351 -91.62925111 206.31466294 -91.61851555 188.76494896 C-91.61698975 186.2485435 -91.6154694 183.73213804 -91.61395454 181.21573257 C-91.61319673 179.97770133 -91.61243892 178.73967008 -91.61165814 177.46412273 C-91.60691999 168.74922794 -91.60876338 160.03434874 -91.61301994 151.31945419 C-91.61795142 140.69722949 -91.61194053 130.07507602 -91.59212565 119.45286761 C-91.58226853 114.03568668 -91.57713156 108.61861413 -91.58501816 103.20142746 C-91.5920956 98.23844155 -91.5852221 93.27567395 -91.56741453 88.31271674 C-91.56338346 86.52155143 -91.56434727 84.7303661 -91.57093339 82.93920837 C-91.65420688 58.16354548 -83.605639 38.79728098 -66.17356873 21.14044189 C-47.71901075 2.65158177 -24.68177201 -0.01406603 0 0 Z " fill="#020202" transform="translate(100.17356872558594,17.85955810546875)"/>
<path d="M0 0 C3.54243739 2.81023054 6.79850956 5.80938049 10 9 C11.03060547 9.99580078 11.03060547 9.99580078 12.08203125 11.01171875 C22.94650486 22.26191331 29.63390711 37.51529522 33.125 52.5625 C33.28395752 53.23974121 33.44291504 53.91698242 33.60668945 54.61474609 C36.58885124 68.37446257 37.29727261 82.21812306 37.24291992 96.24414062 C37.24399651 97.89032568 37.24594073 99.53651035 37.24867249 101.18269348 C37.25345789 105.59280894 37.24594981 110.00282087 37.23571944 114.41292381 C37.22685399 119.04485304 37.22869788 123.67677984 37.2290802 128.30871582 C37.22814865 136.06504017 37.21952595 143.82132498 37.20581055 151.57763672 C37.19000155 160.55126571 37.18481575 169.52485177 37.1855461 178.49849367 C37.18621994 188.07075424 37.1792983 197.64299825 37.1700995 207.21525383 C37.16796606 209.97222328 37.16725809 212.72919007 37.16686058 215.48616028 C37.16586014 219.80040254 37.15978833 224.11460845 37.14969444 228.42883873 C37.14676254 230.01518723 37.14554546 231.60153991 37.14612198 233.18789101 C37.14660916 235.3433582 37.14099244 237.49872196 37.13371277 239.6541748 C37.13203692 240.86268852 37.13036108 242.07120224 37.12863445 243.31633759 C37 246 37 246 36 247 C33.47458998 247.09504251 30.97662874 247.12557158 28.45092773 247.11352539 C27.26564987 247.11374443 27.26564987 247.11374443 26.056427 247.1139679 C23.43212178 247.11326857 20.80788664 247.10547527 18.18359375 247.09765625 C16.36898335 247.09579214 14.55437244 247.0943682 12.73976135 247.09336853 C7.9540977 247.08954279 3.1684642 247.07971204 -1.6171875 247.06866455 C-6.49674064 247.05845163 -11.37629864 247.05387117 -16.25585938 247.04882812 C-25.83725286 247.03808982 -35.41862393 247.02101273 -45 247 C-46.33501723 244.32996554 -46.12774574 242.29775752 -46.13130188 239.30665588 C-46.13731415 237.48839798 -46.13731415 237.48839798 -46.14344788 235.63340759 C-46.14297271 234.28237913 -46.14243659 232.93135068 -46.1418457 231.58032227 C-46.1448769 230.16259655 -46.14839825 228.74487182 -46.15237427 227.32714844 C-46.16027447 224.26659092 -46.16541276 221.20604511 -46.16866493 218.1454792 C-46.17458324 213.28835125 -46.19113741 208.43129632 -46.21000671 203.57420349 C-46.21634508 201.90876489 -46.22267069 200.24332623 -46.22898388 198.57788754 C-46.2337326 197.32622116 -46.2337326 197.32622116 -46.23857725 196.0492686 C-46.28054605 184.74241334 -46.31354675 173.43558992 -46.32592773 162.12866211 C-46.33436275 154.50374695 -46.35706214 146.87901076 -46.3952834 139.25418514 C-46.41488246 135.22656521 -46.42750371 131.1992118 -46.42244911 127.17154121 C-45.40266808 93.22683436 -45.40266808 93.22683436 -60.4375 64.125 C-69.95078223 56.6049769 -82.26517492 54.91075262 -94 56 C-103.91733478 57.23966685 -112.28040314 61.56669846 -119 69 C-130.19971074 84.145841 -131.12971526 101.81753878 -131.18945312 119.97094727 C-131.19741293 121.35009504 -131.2058022 122.72924039 -131.21458435 124.10838318 C-131.2325136 127.05696967 -131.24757281 130.00555128 -131.26036072 132.95416451 C-131.2807094 137.61376003 -131.30833718 142.27329552 -131.33703613 146.93284607 C-131.40197175 157.65136275 -131.45776117 168.36992311 -131.51302338 179.08849335 C-131.56386227 188.94168886 -131.61664118 198.79486202 -131.67754889 208.64800113 C-131.70592838 213.28410283 -131.72951026 217.92019701 -131.74947357 222.55634224 C-131.76281824 225.4287911 -131.78023042 228.30120456 -131.79878426 231.17362404 C-131.81029157 233.14975975 -131.81681579 235.12592248 -131.82322693 237.1020813 C-131.83157059 238.26698593 -131.83991425 239.43189056 -131.84851074 240.63209534 C-131.85366447 241.6505935 -131.85881821 242.66909166 -131.86412811 243.71845341 C-132 246 -132 246 -133 247 C-135.48953697 247.10033866 -137.95134953 247.13617943 -140.44140625 247.12939453 C-141.22023163 247.13114685 -141.99905701 247.13289917 -142.80148315 247.13470459 C-145.38851111 247.13912349 -147.97547129 247.13618499 -150.5625 247.1328125 C-152.35229506 247.13348553 -154.14209002 247.13445554 -155.93188477 247.13571167 C-159.68799711 247.13718869 -163.44408572 247.13503394 -167.20019531 247.13037109 C-172.02600493 247.1246738 -176.85175895 247.12795278 -181.67756653 247.13394356 C-185.37488223 247.13754905 -189.07218464 247.13641064 -192.76950073 247.13381577 C-194.54938768 247.13314646 -196.32927582 247.13397503 -198.10916138 247.13629532 C-200.59233822 247.13882165 -203.07542374 247.13498154 -205.55859375 247.12939453 C-206.67293289 247.13243088 -206.67293289 247.13243088 -207.80978394 247.13552856 C-212.88573738 247.11426262 -212.88573738 247.11426262 -214 246 C-214.09822443 244.62579672 -214.12738902 243.24658321 -214.12863445 241.86887455 C-214.1318589 240.97288424 -214.13508335 240.07689392 -214.1384055 239.15375239 C-214.1368569 238.15805576 -214.1353083 237.16235912 -214.13371277 236.13648987 C-214.13597833 235.08757362 -214.13824388 234.03865737 -214.14057809 232.95795578 C-214.14695008 229.41409826 -214.14608669 225.87027866 -214.14526367 222.32641602 C-214.14825316 219.79752553 -214.1516552 217.26863551 -214.15544128 214.73974609 C-214.16338429 208.5662609 -214.16649685 202.3927898 -214.16705366 196.21929998 C-214.16752806 191.20360661 -214.16957895 186.18791641 -214.17275429 181.17222404 C-214.18156525 166.96651712 -214.18617297 152.76081776 -214.18542381 138.55510808 C-214.18538386 137.78854106 -214.1853439 137.02197405 -214.18530273 136.23217773 C-214.18526185 135.46467986 -214.18522097 134.69718199 -214.18517885 133.9064266 C-214.18477225 121.46299815 -214.19434424 109.01959993 -214.2084411 96.57618023 C-214.22278579 83.8137767 -214.22971234 71.05138793 -214.22884732 58.28897613 C-214.22851469 51.11805345 -214.23129054 43.94716247 -214.24202538 36.77624702 C-214.25205169 30.03517193 -214.2518146 23.29417511 -214.24450874 16.55309296 C-214.24345766 14.07220551 -214.24585652 11.59131396 -214.2518692 9.11043358 C-214.25951846 5.73703973 -214.25499156 2.36388207 -214.24723816 -1.00950623 C-214.25238172 -2.00297213 -214.25752529 -2.99643804 -214.26282471 -4.02000898 C-214.25822592 -4.91860704 -214.25362712 -5.8172051 -214.24888897 -6.74303341 C-214.24910634 -7.52243689 -214.24932371 -8.30184038 -214.24954766 -9.10486215 C-214 -11 -214 -11 -212 -13 C-209.57169939 -13.19815184 -207.25745981 -13.27283267 -204.828125 -13.25878906 C-204.08977417 -13.2622937 -203.35142334 -13.26579834 -202.59069824 -13.26940918 C-200.14370392 -13.27823049 -197.6969974 -13.27237604 -195.25 -13.265625 C-193.55371037 -13.26697154 -191.85742112 -13.26891197 -190.16113281 -13.27142334 C-186.6034783 -13.27437514 -183.04592412 -13.27007519 -179.48828125 -13.26074219 C-174.92148859 -13.24934759 -170.354931 -13.25590677 -165.78814697 -13.26788712 C-162.28464986 -13.27510422 -158.78120874 -13.27281848 -155.27770996 -13.26763153 C-153.59354627 -13.26629462 -151.90937754 -13.2679442 -150.22521973 -13.27259064 C-147.87396726 -13.27765347 -145.52309877 -13.26994933 -143.171875 -13.25878906 C-142.12138977 -13.26486176 -142.12138977 -13.26486176 -141.04968262 -13.27105713 C-136.22852915 -13.22852915 -136.22852915 -13.22852915 -134 -11 C-133.75443629 -8.27999643 -133.62643514 -5.65425743 -133.5859375 -2.9296875 C-133.56657135 -2.13345978 -133.5472052 -1.33723206 -133.5272522 -0.51687622 C-133.46739526 2.03030634 -133.42104721 4.57753395 -133.375 7.125 C-133.33682579 8.8502803 -133.29777439 10.57554143 -133.2578125 12.30078125 C-133.16168891 16.53369876 -133.07768092 20.76670549 -133 25 C-132.62705811 24.34918457 -132.25411621 23.69836914 -131.86987305 23.02783203 C-120.57110675 3.69268212 -103.83588029 -8.35160502 -82.2265625 -14.23828125 C-54.73902066 -20.72747091 -23.34777598 -16.0577531 0 0 Z " fill="#FCFCFC" transform="translate(458,240)"/>
<path d="M0 0 C1.09256355 0.00607269 1.09256355 0.00607269 2.2071991 0.01226807 C2.97481064 0.00876343 3.74242218 0.00525879 4.53329468 0.00164795 C7.07768219 -0.00717455 9.621793 -0.00131847 12.16618347 0.00543213 C13.92973382 0.00408563 15.69328381 0.00214522 17.45683289 -0.00036621 C21.15572132 -0.00331817 24.85451327 0.00098247 28.5533905 0.01031494 C33.30178253 0.02170954 38.04994849 0.01515045 42.79833221 0.00317001 C46.44079806 -0.00404665 50.08321005 -0.00176156 53.72567749 0.0034256 C55.47682726 0.00476263 57.22798186 0.0031125 58.97912598 -0.00153351 C61.42377228 -0.0065956 63.86804916 0.00110682 66.31266785 0.01226807 C67.04104355 0.0082196 67.76941925 0.00417114 68.51986694 0 C73.5314046 0.04252826 73.5314046 0.04252826 75.75993347 2.27105713 C76.00948113 4.16619498 76.00948113 4.16619498 76.00882244 6.52802372 C76.01342124 7.42662178 76.01802003 8.32521984 76.02275819 9.25104815 C76.01761462 10.24451406 76.01247106 11.23797997 76.00717163 12.2615509 C76.00958605 13.31202714 76.01200046 14.36250338 76.01448804 15.44481224 C76.02015339 18.98794869 76.01144055 22.53090711 76.00285339 26.07403564 C76.00392557 28.60469614 76.00586328 31.13535639 76.00860596 33.66601562 C76.01296199 39.83971813 76.00799766 46.01335383 75.99875566 52.1870491 C75.98838821 59.36981828 75.9884414 66.55257582 75.98892824 73.73535108 C75.9894292 86.54666219 75.98025764 99.35794837 75.96574402 112.16925049 C75.95165295 124.61391657 75.94457334 137.0585607 75.94523621 149.50323486 C75.94529614 150.65308538 75.94529614 150.65308538 75.94535729 151.82616521 C75.94539764 152.59137913 75.94543799 153.35659305 75.94547957 154.14499527 C75.94616864 168.29457516 75.94028418 182.44414568 75.93132636 196.59372254 C75.92830447 201.6061838 75.92724614 206.61864335 75.92679405 211.63110542 C75.92604245 218.37053637 75.91971774 225.10994086 75.90962791 231.84936523 C75.90669467 234.33067113 75.9054792 236.81197971 75.90605545 239.29328728 C75.90654234 242.66473233 75.90092821 246.03611113 75.89364624 249.407547 C75.89519484 250.40324363 75.89674344 251.39894026 75.89833897 252.42480952 C75.8935023 253.76879499 75.8935023 253.76879499 75.88856792 255.13993168 C75.8878635 255.91917281 75.88715907 256.69841395 75.8864333 257.50126845 C75.75993347 259.27105713 75.75993347 259.27105713 74.75993347 260.27105713 C72.23452345 260.36609964 69.73656221 260.39662871 67.21086121 260.38458252 C66.02558334 260.38480156 66.02558334 260.38480156 64.81636047 260.38502502 C62.19205525 260.3843257 59.56782011 260.3765324 56.94352722 260.36871338 C55.12891682 260.36684927 53.31430591 260.36542533 51.49969482 260.36442566 C46.71403117 260.36059992 41.92839767 260.35076917 37.14274597 260.33972168 C32.26319283 260.32950876 27.38363484 260.3249283 22.5040741 260.31988525 C12.92268061 260.30914695 3.34130954 260.29206986 -6.24006653 260.27105713 C-7.40133622 257.94851774 -7.36635314 256.6183098 -7.36870098 254.03250122 C-7.37192543 253.13800325 -7.37514987 252.24350529 -7.37847203 251.32190132 C-7.37614913 249.83856206 -7.37614913 249.83856206 -7.3737793 248.32525635 C-7.37604485 247.27956923 -7.37831041 246.2338821 -7.38064462 245.15650749 C-7.38700798 241.62957552 -7.38615377 238.10268173 -7.3853302 234.57574463 C-7.3883202 232.05655873 -7.39172236 229.5373733 -7.39550781 227.01818848 C-7.40344598 220.87224596 -7.40656312 214.72631759 -7.40712019 208.58037043 C-7.40759478 203.58710754 -7.40964668 198.59384782 -7.41282082 193.60058594 C-7.42162978 179.45612468 -7.42623974 165.31167102 -7.42549034 151.167207 C-7.42545039 150.40419239 -7.42541043 149.64117777 -7.42536926 148.8550415 C-7.42532838 148.09109975 -7.4252875 147.32715799 -7.42524538 146.54006648 C-7.42483869 134.15166702 -7.43441334 121.76329793 -7.44850763 109.37490726 C-7.46285217 96.66671265 -7.4697789 83.95853288 -7.46891385 71.25032997 C-7.46858125 64.11072127 -7.47135606 56.9711444 -7.4820919 49.83154297 C-7.4921179 43.12082322 -7.49188131 36.4101821 -7.48457527 29.69945526 C-7.4835242 27.22985486 -7.485923 24.76025035 -7.49193573 22.29065704 C-7.49958503 18.93264305 -7.49505808 15.57486633 -7.48730469 12.21685791 C-7.49244825 11.22796507 -7.49759181 10.23907223 -7.50289124 9.22021294 C-7.49829245 8.32571497 -7.49369365 7.431217 -7.4889555 6.50961304 C-7.48917287 5.73378939 -7.48939023 4.95796574 -7.48961419 4.15863228 C-6.89897966 -0.3089194 -3.76583747 0.03195716 0 0 Z " fill="#FCFCFC" transform="translate(122.24006652832031,226.72894287109375)"/>
<path d="M0 0 C1.35351562 0.66902344 1.35351562 0.66902344 2.734375 1.3515625 C13.65601021 7.27572221 20.84744917 17.05794069 24.59106445 28.86401367 C28.32069409 42.50261012 26.42894638 55.24579415 19.578125 67.5546875 C12.22314743 79.29892587 1.88367831 86.51208514 -11.625 89.9375 C-24.17371169 92.36288125 -36.64733538 91.30070294 -47.77734375 84.57421875 C-58.7965045 76.76978679 -68.34294309 66.64392488 -71 53 C-72.66244673 38.45359113 -71.44684353 26.24164247 -62.6875 14.1875 C-46.98033065 -4.43959186 -22.21514169 -11.4717535 0 0 Z " fill="#FBFBFB" transform="translate(179,108)"/>
</svg>
